<?xml version="1.0" encoding="UTF-8"?>
<svg width="185px" height="68px" viewBox="0 0 185 68" version="1.1" xmlns="http://www.w3.org/2000/svg" xmlns:xlink="http://www.w3.org/1999/xlink">
    <!-- Generator: Sketch 47.1 (45422) - http://www.bohemiancoding.com/sketch -->
    <title>Page 1</title>
    <desc>Created with Sketch.</desc>
    <defs></defs>
    <g id="Page-1" stroke="none" stroke-width="1" fill="none" fill-rule="evenodd">
        <g fill="#FFFFFF">
            <path d="M184.030218,20.240503 C181.01398,24.5958693 174.048356,28.005295 166.247881,29.6662455 C157.736436,31.4786812 150.734455,28.2517109 149.66396,21.7587208 C148.859406,16.8802257 152.241228,11.9889386 159.836356,8.46573069 C164.96396,6.08707723 170.502931,5.88307723 175.129624,6.95222574 L175.773941,7.11111683 C173.97295,6.55836436 152.808792,0.684106931 152.808792,0.684106931 C152.808792,0.684106931 151.011168,0.228237624 149.437069,0.096950495 C147.519604,-0.0626138614 145.322059,-0.121188119 143.237624,0.706324752 C137.12099,3.1348 133.604515,11.3459683 140.89196,23.8310376 C148.180079,36.3154337 167.358099,41.3346416 173.801941,39.9975327 C175.908594,39.5605822 177.943881,37.7414139 178.922139,35.1102851 C181.572792,27.5979683 184.977505,18.4738495 184.977505,18.4738495 L184.030218,20.240503 Z M169.647881,8.20248317 C169.326059,8.20248317 169.002891,8.20921584 168.679723,8.22268119 C172.086455,11.4321465 175.132317,15.2132158 177.31303,18.9491762 C178.006495,20.1361465 178.621188,21.3136911 179.143644,22.4555525 C180.57097,21.4335327 181.686574,20.348899 182.463525,19.2265624 C183.284238,18.0409386 183.700317,16.830404 183.700317,15.6259287 C183.700317,12.9537307 179.715921,9.9388396 174.629386,8.76331485 C173.016238,8.39099802 171.340475,8.20248317 169.647881,8.20248317 L169.647881,8.20248317 Z" id="Fill-1"></path>
            <path d="M0,55.2853465 L0,55.216 C0,48.3284752 5.19156436,42.6871683 12.6331881,42.6871683 C17.2013069,42.6871683 19.9354455,44.210099 22.185505,46.4251485 L18.7935842,50.3354851 C16.9245941,48.640198 15.0212673,47.6020198 12.5981782,47.6020198 C8.51413861,47.6020198 5.5719604,50.9932673 5.5719604,55.1466535 L5.5719604,55.216 C5.5719604,59.3687129 8.44479208,62.8299802 12.5981782,62.8299802 C15.3666535,62.8299802 17.0632871,61.7231287 18.9666139,59.9921584 L22.3585347,63.4184158 C19.8667723,66.0838812 17.0976238,67.7448317 12.4251485,67.7448317 C5.29524752,67.7448317 0,62.2422178 0,55.2853465" id="Fill-2"></path>
            <polygon id="Fill-3" points="24.3872238 67.329695 29.7174812 67.329695 29.7174812 43.1021703 24.3872238 43.1021703"></polygon>
            <path d="M44.5007485,54.8698059 C47.0961941,54.8698059 48.5847881,53.4855683 48.5847881,51.4435485 L48.5847881,51.374202 C48.5847881,49.0898059 46.9931842,47.9129347 44.3970653,47.9129347 L39.1011446,47.9129347 L39.1011446,54.8698059 L44.5007485,54.8698059 Z M33.7715604,43.1017663 L44.8474812,43.1017663 C47.9276792,43.1017663 50.3157584,43.9675881 51.9073624,45.5598653 C53.2572634,46.9097663 53.9843921,48.8130931 53.9843921,51.0968158 L53.9843921,51.1668356 C53.9843921,55.0778455 51.8730257,57.534598 48.7928277,58.6771327 L54.7108475,67.3299644 L48.481105,67.3299644 L43.2895406,59.5766178 L43.2208673,59.5766178 L39.1011446,59.5766178 L39.1011446,67.3299644 L33.7715604,67.3299644 L33.7715604,43.1017663 Z" id="Fill-4"></path>
            <polygon id="Fill-5" points="56.9351881 43.102103 75.3823762 43.102103 75.3823762 47.9476079 62.2647723 47.9476079 62.2647723 53.1041624 73.8251089 53.1041624 73.8251089 57.9503406 62.2647723 57.9503406 62.2647723 67.3296277 56.9351881 67.3296277"></polygon>
            <path d="M95.9560792,55.2853465 L95.9560792,55.216 C95.9560792,51.0632871 92.9108911,47.6020198 88.6194851,47.6020198 C84.3274059,47.6020198 81.3508911,50.9932673 81.3508911,55.1466535 L81.3508911,55.216 C81.3508911,59.3687129 84.3960792,62.8299802 88.6881584,62.8299802 C92.9795644,62.8299802 95.9560792,59.4387327 95.9560792,55.2853465 M75.7782574,55.2853465 L75.7782574,55.216 C75.7782574,48.3284752 81.2128713,42.6871683 88.6881584,42.6871683 C96.1641188,42.6871683 101.528713,48.2591287 101.528713,55.1466535 L101.528713,55.216 C101.528713,62.1035248 96.0947723,67.7448317 88.6194851,67.7448317 C81.1428515,67.7448317 75.7782574,62.172198 75.7782574,55.2853465" id="Fill-6"></path>
            <path d="M123.17897,55.2853465 L123.17897,55.216 C123.17897,51.0632871 120.133782,47.6020198 115.842376,47.6020198 C111.550297,47.6020198 108.573782,50.9932673 108.573782,55.1466535 L108.573782,55.216 C108.573782,59.3687129 111.61897,62.8299802 115.91105,62.8299802 C120.202455,62.8299802 123.17897,59.4387327 123.17897,55.2853465 M103.001149,55.2853465 L103.001149,55.216 C103.001149,48.3284752 108.435762,42.6871683 115.91105,42.6871683 C123.38701,42.6871683 128.751604,48.2591287 128.751604,55.1466535 L128.751604,55.216 C128.751604,62.1035248 123.317663,67.7448317 115.842376,67.7448317 C108.365743,67.7448317 103.001149,62.172198 103.001149,55.2853465" id="Fill-7"></path>
            <path d="M140.912158,62.5190653 C145.272911,62.5190653 148.215089,59.5768871 148.215089,55.2854812 L148.215089,55.2161347 C148.215089,50.9240554 145.272911,47.913204 140.912158,47.913204 L136.793109,47.913204 L136.793109,62.5190653 L140.912158,62.5190653 Z M131.463525,43.1020356 L140.912158,43.1020356 C148.526812,43.1020356 153.78705,48.3286099 153.78705,55.1467881 L153.78705,55.2161347 C153.78705,62.0343129 148.526812,67.3302337 140.912158,67.3302337 L131.463525,67.3302337 L131.463525,43.1020356 Z" id="Fill-8"></path>
        </g>
    </g>
</svg>