<?xml version="1.0" encoding="UTF-8"?>
<svg width="354px" height="68px" viewBox="0 0 354 68" version="1.1" xmlns="http://www.w3.org/2000/svg" xmlns:xlink="http://www.w3.org/1999/xlink">
    <!-- Generator: Sketch 47.1 (45422) - http://www.bohemiancoding.com/sketch -->
    <title>Page 1</title>
    <desc>Created with Sketch.</desc>
    <defs></defs>
    <g id="Page-1" stroke="none" stroke-width="1" fill="none" fill-rule="evenodd">
        <g>
            <path d="M44.4038915,67.4330368 C42.625274,67.4330368 41.2702825,66.9383991 40.3388763,65.9491089 C39.4074701,64.9598187 38.941774,63.5548372 38.941774,61.7341223 C38.941774,60.829027 39.0838508,60.0212942 39.3680086,59.3108996 C39.6521664,58.6005051 40.041562,58.0006253 40.5362071,57.5112424 C41.0308522,57.0218595 41.6202078,56.6508813 42.3042914,56.3982965 C42.9883751,56.1457118 43.7303316,56.0194213 44.5301832,56.0194213 C44.9932553,56.0194213 45.4142235,56.053625 45.7931006,56.1220333 C46.1719777,56.1904417 46.5034902,56.2693733 46.787648,56.3588304 C47.0718058,56.4482874 47.3086005,56.5403742 47.498039,56.6350935 C47.6874776,56.7298128 47.8242922,56.8034822 47.9084871,56.8561041 L47.1980961,58.8451989 C46.8613165,58.6662847 46.4692898,58.5136837 46.0220044,58.3873913 C45.5747189,58.261099 45.066926,58.1979537 44.4986103,58.1979537 C44.1197332,58.1979537 43.748755,58.261099 43.3856644,58.3873913 C43.0225739,58.5136837 42.7015856,58.7162747 42.4226899,58.9951703 C42.1437943,59.274066 41.9201549,59.63452 41.7517651,60.0765433 C41.5833753,60.5185666 41.4991816,61.0553011 41.4991816,61.6867629 C41.4991816,62.1919324 41.5544337,62.6628906 41.6649395,63.0996517 C41.7754453,63.5364128 41.9543568,63.9126531 42.2016794,64.2283841 C42.4490019,64.544115 42.7726213,64.7940649 43.1725471,64.9782412 C43.5724729,65.1624176 44.0565864,65.2545044 44.624902,65.2545044 C44.9827304,65.2545044 45.3037187,65.233456 45.5878765,65.1913585 C45.8720343,65.1492611 46.1246153,65.0992711 46.3456269,65.0413871 C46.5666386,64.9835031 46.7613364,64.9177268 46.9297262,64.8440563 C47.098116,64.7703857 47.250717,64.7019784 47.3875337,64.6388322 L48.0663518,66.6121405 C47.7190478,66.8226278 47.2296722,67.0120635 46.5982104,67.1804534 C45.9667486,67.3488432 45.2353163,67.4330368 44.4038915,67.4330368 Z M51.238967,61.7341223 C51.238967,62.2708649 51.3047433,62.7549783 51.4362979,63.1864772 C51.5678524,63.6179762 51.7572881,63.9889544 52.0046107,64.2994232 C52.2519332,64.6098919 52.5545041,64.8493176 52.9123325,65.0177074 C53.2701609,65.1860972 53.6806049,65.2702909 54.1436769,65.2702909 C54.5962246,65.2702909 55.0040375,65.1860972 55.3671281,65.0177074 C55.7302186,64.8493176 56.0354206,64.6098919 56.2827432,64.2994232 C56.5300657,63.9889544 56.7195014,63.6179762 56.851056,63.1864772 C56.9826105,62.7549783 57.0483868,62.2708649 57.0483868,61.7341223 C57.0483868,61.1973797 56.9826105,60.7106352 56.851056,60.2738741 C56.7195014,59.837113 56.5300657,59.4635037 56.2827432,59.153035 C56.0354206,58.8425662 55.7302186,58.6031406 55.3671281,58.4347507 C55.0040375,58.2663609 54.5962246,58.1821673 54.1436769,58.1821673 C53.6806049,58.1821673 53.2701609,58.268992 52.9123325,58.442644 C52.5545041,58.616296 52.2519332,58.8583527 52.0046107,59.1688214 C51.7572881,59.4792902 51.5678524,59.8528995 51.4362979,60.2896606 C51.3047433,60.7264217 51.238967,61.2079041 51.238967,61.7341223 Z M59.590008,61.7341223 C59.590008,62.6707907 59.4505622,63.4943098 59.1716666,64.2047044 C58.892771,64.9150989 58.5112685,65.5097166 58.0271478,65.9885751 C57.543027,66.4674337 56.9668267,66.8278877 56.2985296,67.0699481 C55.6302325,67.3120085 54.9119555,67.4330368 54.1436769,67.4330368 C53.3964471,67.4330368 52.6913253,67.3120085 52.0282904,67.0699481 C51.3652554,66.8278877 50.7864241,66.4674337 50.291779,65.9885751 C49.7971339,65.5097166 49.4077383,64.9150989 49.1235805,64.2047044 C48.8394226,63.4943098 48.6973459,62.6707907 48.6973459,61.7341223 C48.6973459,60.7974539 48.8446848,59.9739348 49.1393669,59.2635402 C49.4340491,58.5531457 49.8313379,57.955897 50.3312452,57.4717763 C50.8311525,56.9876555 51.4099838,56.6245704 52.0677565,56.3825101 C52.7255293,56.1404497 53.4174958,56.0194213 54.1436769,56.0194213 C54.8909067,56.0194213 55.5960285,56.1404497 56.2590635,56.3825101 C56.9220984,56.6245704 57.5009297,56.9876555 57.9955748,57.4717763 C58.4902199,57.955897 58.8796155,58.5531457 59.1637734,59.2635402 C59.4479312,59.9739348 59.590008,60.7974539 59.590008,61.7341223 Z M69.3005435,67.2120263 C68.5954112,65.959627 67.8324062,64.7230328 67.0115058,63.5022066 C66.1906055,62.2813804 65.3170964,61.1289798 64.3909524,60.0449704 L64.3909524,67.2120263 L61.9598365,67.2120263 L61.9598365,56.2720048 L63.9647178,56.2720048 C64.3120218,56.6193088 64.6961553,57.0455391 65.1171298,57.5507086 C65.5381044,58.0558781 65.9669658,58.5952436 66.4037269,59.1688214 C66.840488,59.7423993 67.2746115,60.3370169 67.7061104,60.9526922 C68.1376093,61.5683675 68.5427912,62.1603541 68.9216683,62.7286697 L68.9216683,56.2720048 L71.3685707,56.2720048 L71.3685707,67.2120263 L69.3005435,67.2120263 Z M76.2800203,61.7341223 C76.2800203,62.2708649 76.3457966,62.7549783 76.4773512,63.1864772 C76.6089057,63.6179762 76.7983414,63.9889544 77.045664,64.2994232 C77.2929865,64.6098919 77.5955575,64.8493176 77.9533858,65.0177074 C78.3112142,65.1860972 78.7216582,65.2702909 79.1847302,65.2702909 C79.6372779,65.2702909 80.0450909,65.1860972 80.4081814,65.0177074 C80.771272,64.8493176 81.0764739,64.6098919 81.3237965,64.2994232 C81.571119,63.9889544 81.7605547,63.6179762 81.8921093,63.1864772 C82.0236638,62.7549783 82.0894401,62.2708649 82.0894401,61.7341223 C82.0894401,61.1973797 82.0236638,60.7106352 81.8921093,60.2738741 C81.7605547,59.837113 81.571119,59.4635037 81.3237965,59.153035 C81.0764739,58.8425662 80.771272,58.6031406 80.4081814,58.4347507 C80.0450909,58.2663609 79.6372779,58.1821673 79.1847302,58.1821673 C78.7216582,58.1821673 78.3112142,58.268992 77.9533858,58.442644 C77.5955575,58.616296 77.2929865,58.8583527 77.045664,59.1688214 C76.7983414,59.4792902 76.6089057,59.8528995 76.4773512,60.2896606 C76.3457966,60.7264217 76.2800203,61.2079041 76.2800203,61.7341223 Z M84.6310613,61.7341223 C84.6310613,62.6707907 84.4916156,63.4943098 84.2127199,64.2047044 C83.9338243,64.9150989 83.5523218,65.5097166 83.0682011,65.9885751 C82.5840803,66.4674337 82.0078801,66.8278877 81.339583,67.0699481 C80.6712859,67.3120085 79.9530088,67.4330368 79.1847302,67.4330368 C78.4375004,67.4330368 77.7323786,67.3120085 77.0693437,67.0699481 C76.4063088,66.8278877 75.8274774,66.4674337 75.3328323,65.9885751 C74.8381872,65.5097166 74.4487916,64.9150989 74.1646338,64.2047044 C73.880476,63.4943098 73.7383992,62.6707907 73.7383992,61.7341223 C73.7383992,60.7974539 73.8857381,59.9739348 74.1804203,59.2635402 C74.4751024,58.5531457 74.8723912,57.955897 75.3722985,57.4717763 C75.8722058,56.9876555 76.4510371,56.6245704 77.1088099,56.3825101 C77.7665826,56.1404497 78.4585491,56.0194213 79.1847302,56.0194213 C79.9319601,56.0194213 80.6370819,56.1404497 81.3001168,56.3825101 C81.9631517,56.6245704 82.541983,56.9876555 83.0366281,57.4717763 C83.5312732,57.955897 83.9206689,58.5531457 84.2048267,59.2635402 C84.4889845,59.9739348 84.6310613,60.7974539 84.6310613,61.7341223 Z M89.984532,65.3334367 C90.331836,65.3334367 90.6186206,65.3044952 90.8448945,65.2466112 C91.0711683,65.1887272 91.2527108,65.1097956 91.3895276,65.0098142 C91.5263443,64.9098327 91.6210621,64.7914354 91.673684,64.6546187 C91.7263058,64.5178019 91.7526163,64.3652009 91.7526163,64.1968111 C91.7526163,63.8389828 91.584229,63.5416739 91.2474494,63.3048757 C90.9106697,63.0680776 90.3318384,62.8128656 89.510938,62.5392321 C89.1531096,62.4129397 88.7952866,62.2682319 88.4374583,62.1051043 C88.0796299,61.9419766 87.7586416,61.7367546 87.4744838,61.4894321 C87.190326,61.2421095 86.9587934,60.9421696 86.7798793,60.5896035 C86.6009651,60.2370373 86.5115093,59.8081759 86.5115093,59.3030064 C86.5115093,58.7978369 86.6062272,58.342665 86.7956657,57.937477 C86.9851043,57.532289 87.2534715,57.1876213 87.6007755,56.9034635 C87.9480795,56.6193056 88.3690478,56.4009284 88.8636929,56.2483251 C89.358338,56.0957218 89.9161209,56.0194213 90.5370584,56.0194213 C91.2737638,56.0194213 91.9104783,56.0983529 92.4472208,56.2562183 C92.9839634,56.4140838 93.42598,56.5877332 93.7732841,56.7771717 L93.062893,58.7189071 C92.7576865,58.5610417 92.4182809,58.421596 92.0446659,58.3005658 C91.671051,58.1795356 91.2211412,58.1190214 90.694923,58.1190214 C90.1055586,58.1190214 89.6819594,58.200584 89.4241124,58.3637116 C89.1662655,58.5268393 89.037344,58.7767892 89.037344,59.1135688 C89.037344,59.3135317 89.0847029,59.481919 89.1794222,59.6187357 C89.2741415,59.7555525 89.4083251,59.8792119 89.5819771,59.9897177 C89.7556291,60.1002235 89.955589,60.2002035 90.1818629,60.2896606 C90.4081367,60.3791177 90.6580866,60.4712045 90.93172,60.5659238 C91.5000357,60.776411 91.9946734,60.9842641 92.4156479,61.1894892 C92.8366225,61.3947143 93.1865523,61.63414 93.4654479,61.9077734 C93.7443436,62.1814069 93.9521967,62.5023952 94.0890134,62.8707479 C94.2258301,63.2391006 94.2942375,63.6863794 94.2942375,64.2125976 C94.2942375,65.2334609 93.9364145,66.0254074 93.2207577,66.5884608 C92.505101,67.1515143 91.4263699,67.4330368 89.984532,67.4330368 C89.5004113,67.4330368 89.0636567,67.4040953 88.6742553,67.3462113 C88.2848538,67.2883273 87.9401861,67.2172889 87.6402417,67.133094 C87.3402973,67.048899 87.0824543,66.9594433 86.8667048,66.864724 C86.6509554,66.7700047 86.4694128,66.680549 86.3220717,66.5963541 L87.0166763,64.6388322 C87.3429315,64.8177464 87.7454824,64.9782405 88.224341,65.1203194 C88.7031995,65.2623983 89.289924,65.3334367 89.984532,65.3334367 Z M101.494725,67.4330368 C99.7161073,67.4330368 98.3611158,66.9383991 97.4297096,65.9491089 C96.4983034,64.9598187 96.0326073,63.5548372 96.0326073,61.7341223 C96.0326073,60.829027 96.1746841,60.0212942 96.4588419,59.3108996 C96.7429997,58.6005051 97.1323953,58.0006253 97.6270404,57.5112424 C98.1216855,57.0218595 98.7110411,56.6508813 99.3951247,56.3982965 C100.079208,56.1457118 100.821165,56.0194213 101.621017,56.0194213 C102.084089,56.0194213 102.505057,56.053625 102.883934,56.1220333 C103.262811,56.1904417 103.594323,56.2693733 103.878481,56.3588304 C104.162639,56.4482874 104.399434,56.5403742 104.588872,56.6350935 C104.778311,56.7298128 104.915126,56.8034822 104.99932,56.8561041 L104.288929,58.8451989 C103.95215,58.6662847 103.560123,58.5136837 103.112838,58.3873913 C102.665552,58.261099 102.157759,58.1979537 101.589444,58.1979537 C101.210567,58.1979537 100.839588,58.261099 100.476498,58.3873913 C100.113407,58.5136837 99.7924189,58.7162747 99.5135232,58.9951703 C99.2346276,59.274066 99.0109882,59.63452 98.8425984,60.0765433 C98.6742086,60.5185666 98.5900149,61.0553011 98.5900149,61.6867629 C98.5900149,62.1919324 98.645267,62.6628906 98.7557728,63.0996517 C98.8662786,63.5364128 99.0451901,63.9126531 99.2925127,64.2283841 C99.5398352,64.544115 99.8634546,64.7940649 100.26338,64.9782412 C100.663306,65.1624176 101.14742,65.2545044 101.715735,65.2545044 C102.073564,65.2545044 102.394552,65.233456 102.67871,65.1913585 C102.962868,65.1492611 103.215449,65.0992711 103.43646,65.0413871 C103.657472,64.9835031 103.85217,64.9177268 104.020559,64.8440563 C104.188949,64.7703857 104.34155,64.7019784 104.478367,64.6388322 L105.157185,66.6121405 C104.809881,66.8226278 104.320506,67.0120635 103.689044,67.1804534 C103.057582,67.3488432 102.32615,67.4330368 101.494725,67.4330368 Z M107.05342,67.2120263 L107.05342,56.2720048 L114.441486,56.2720048 L114.441486,58.3400319 L109.516108,58.3400319 L109.516108,60.4869914 L113.88896,60.4869914 L113.88896,62.5076592 L109.516108,62.5076592 L109.516108,65.1439991 L114.804575,65.1439991 L114.804575,67.2120263 L107.05342,67.2120263 Z M120.142259,56.1457131 C121.78406,56.1457131 123.041702,56.4377598 123.915225,57.021862 C124.788747,57.6059642 125.225501,58.5136769 125.225501,59.7450275 C125.225501,60.513306 125.049221,61.1368652 124.696655,61.6157238 C124.344089,62.0945824 123.836296,62.4708227 123.173261,62.7444562 C123.394272,63.0180896 123.625805,63.3311848 123.867865,63.683751 C124.109926,64.0363171 124.349351,64.4046644 124.586149,64.7888036 C124.822948,65.1729429 125.051849,65.5728627 125.272861,65.9885751 C125.493872,66.4042875 125.699094,66.8121005 125.888533,67.2120263 L123.125901,67.2120263 C122.925938,66.8541979 122.723347,66.4911128 122.518122,66.1227601 C122.312897,65.7544073 122.102413,65.3965843 121.886664,65.0492803 C121.670914,64.7019763 121.457799,64.3730949 121.247312,64.0626262 C121.036824,63.7521574 120.82634,63.4706349 120.615853,63.2180502 L119.400295,63.2180502 L119.400295,67.2120263 L116.937606,67.2120263 L116.937606,56.4298695 C117.474349,56.3246258 118.029501,56.2509564 118.603079,56.2088589 C119.176656,56.1667615 119.689711,56.1457131 120.142259,56.1457131 Z M120.284337,58.2453131 C120.105423,58.2453131 119.944929,58.2505752 119.80285,58.2610996 C119.660771,58.271624 119.526587,58.2821482 119.400295,58.2926725 L119.400295,61.2605283 L120.0949,61.2605283 C121.021044,61.2605283 121.684069,61.144762 122.083994,60.913226 C122.48392,60.68169 122.68388,60.2870323 122.68388,59.729241 C122.68388,59.1924985 122.481289,58.810996 122.076101,58.5847222 C121.670913,58.3584484 121.073665,58.2453131 120.284337,58.2453131 Z M127.784767,67.2120263 L127.784767,56.2720048 L135.172834,56.2720048 L135.172834,58.3400319 L130.247456,58.3400319 L130.247456,60.4869914 L134.620308,60.4869914 L134.620308,62.5076592 L130.247456,62.5076592 L130.247456,65.1439991 L135.535923,65.1439991 L135.535923,67.2120263 L127.784767,67.2120263 Z M145.681067,61.6394035 C145.681067,61.9446101 145.628446,62.2313947 145.523202,62.4997659 C145.417958,62.7681372 145.265357,63.0049319 145.065394,63.2101569 C144.865431,63.415382 144.626006,63.5785072 144.34711,63.6995374 C144.068215,63.8205676 143.755119,63.8810818 143.407815,63.8810818 C143.060511,63.8810818 142.747416,63.8205676 142.468521,63.6995374 C142.189625,63.5785072 141.950199,63.415382 141.750236,63.2101569 C141.550273,63.0049319 141.397672,62.7681372 141.292429,62.4997659 C141.187185,62.2313947 141.134564,61.9446101 141.134564,61.6394035 C141.134564,61.3447213 141.187185,61.0605678 141.292429,60.7869343 C141.397672,60.5133008 141.550273,60.2738751 141.750236,60.0686501 C141.950199,59.863425 142.189625,59.7002998 142.468521,59.5792696 C142.747416,59.4582394 143.060511,59.3977252 143.407815,59.3977252 C143.755119,59.3977252 144.068215,59.4582394 144.34711,59.5792696 C144.626006,59.7002998 144.865431,59.863425 145.065394,60.0686501 C145.265357,60.2738751 145.417958,60.5133008 145.523202,60.7869343 C145.628446,61.0605678 145.681067,61.3447213 145.681067,61.6394035 Z M154.973741,65.3334367 C155.321045,65.3334367 155.60783,65.3044952 155.834104,65.2466112 C156.060378,65.1887272 156.24192,65.1097956 156.378737,65.0098142 C156.515554,64.9098327 156.610271,64.7914354 156.662893,64.6546187 C156.715515,64.5178019 156.741826,64.3652009 156.741826,64.1968111 C156.741826,63.8389828 156.573438,63.5416739 156.236659,63.3048757 C155.899879,63.0680776 155.321048,62.8128656 154.500147,62.5392321 C154.142319,62.4129397 153.784496,62.2682319 153.426668,62.1051043 C153.068839,61.9419766 152.747851,61.7367546 152.463693,61.4894321 C152.179535,61.2421095 151.948003,60.9421696 151.769089,60.5896035 C151.590174,60.2370373 151.500719,59.8081759 151.500719,59.3030064 C151.500719,58.7978369 151.595436,58.342665 151.784875,57.937477 C151.974314,57.532289 152.242681,57.1876213 152.589985,56.9034635 C152.937289,56.6193056 153.358257,56.4009284 153.852902,56.2483251 C154.347547,56.0957218 154.90533,56.0194213 155.526268,56.0194213 C156.262973,56.0194213 156.899688,56.0983529 157.43643,56.2562183 C157.973173,56.4140838 158.415189,56.5877332 158.762493,56.7771717 L158.052102,58.7189071 C157.746896,58.5610417 157.40749,58.421596 157.033875,58.3005658 C156.66026,58.1795356 156.21035,58.1190214 155.684132,58.1190214 C155.094768,58.1190214 154.671169,58.200584 154.413322,58.3637116 C154.155475,58.5268393 154.026553,58.7767892 154.026553,59.1135688 C154.026553,59.3135317 154.073912,59.481919 154.168631,59.6187357 C154.263351,59.7555525 154.397534,59.8792119 154.571186,59.9897177 C154.744838,60.1002235 154.944798,60.2002035 155.171072,60.2896606 C155.397346,60.3791177 155.647296,60.4712045 155.920929,60.5659238 C156.489245,60.776411 156.983883,60.9842641 157.404857,61.1894892 C157.825832,61.3947143 158.175762,61.63414 158.454657,61.9077734 C158.733553,62.1814069 158.941406,62.5023952 159.078223,62.8707479 C159.215039,63.2391006 159.283447,63.6863794 159.283447,64.2125976 C159.283447,65.2334609 158.925624,66.0254074 158.209967,66.5884608 C157.49431,67.1515143 156.415579,67.4330368 154.973741,67.4330368 C154.489621,67.4330368 154.052866,67.4040953 153.663465,67.3462113 C153.274063,67.2883273 152.929395,67.2172889 152.629451,67.133094 C152.329507,67.048899 152.071664,66.9594433 151.855914,66.864724 C151.640165,66.7700047 151.458622,66.680549 151.311281,66.5963541 L152.005886,64.6388322 C152.332141,64.8177464 152.734692,64.9782405 153.21355,65.1203194 C153.692409,65.2623983 154.279133,65.3334367 154.973741,65.3334367 Z M166.483934,67.4330368 C164.705317,67.4330368 163.350325,66.9383991 162.418919,65.9491089 C161.487513,64.9598187 161.021817,63.5548372 161.021817,61.7341223 C161.021817,60.829027 161.163893,60.0212942 161.448051,59.3108996 C161.732209,58.6005051 162.121605,58.0006253 162.61625,57.5112424 C163.110895,57.0218595 163.70025,56.6508813 164.384334,56.3982965 C165.068418,56.1457118 165.810374,56.0194213 166.610226,56.0194213 C167.073298,56.0194213 167.494266,56.053625 167.873143,56.1220333 C168.25202,56.1904417 168.583533,56.2693733 168.867691,56.3588304 C169.151848,56.4482874 169.388643,56.5403742 169.578082,56.6350935 C169.76752,56.7298128 169.904335,56.8034822 169.98853,56.8561041 L169.278139,58.8451989 C168.941359,58.6662847 168.549332,58.5136837 168.102047,58.3873913 C167.654761,58.261099 167.146969,58.1979537 166.578653,58.1979537 C166.199776,58.1979537 165.828798,58.261099 165.465707,58.3873913 C165.102616,58.5136837 164.781628,58.7162747 164.502732,58.9951703 C164.223837,59.274066 164.000197,59.63452 163.831808,60.0765433 C163.663418,60.5185666 163.579224,61.0553011 163.579224,61.6867629 C163.579224,62.1919324 163.634476,62.6628906 163.744982,63.0996517 C163.855488,63.5364128 164.034399,63.9126531 164.281722,64.2283841 C164.529045,64.544115 164.852664,64.7940649 165.25259,64.9782412 C165.652515,65.1624176 166.136629,65.2545044 166.704945,65.2545044 C167.062773,65.2545044 167.383761,65.233456 167.667919,65.1913585 C167.952077,65.1492611 168.204658,65.0992711 168.42567,65.0413871 C168.646681,64.9835031 168.841379,64.9177268 169.009769,64.8440563 C169.178159,64.7703857 169.33076,64.7019784 169.467576,64.6388322 L170.146394,66.6121405 C169.79909,66.8226278 169.309715,67.0120635 168.678253,67.1804534 C168.046791,67.3488432 167.315359,67.4330368 166.483934,67.4330368 Z M173.31901,61.7341223 C173.31901,62.2708649 173.384786,62.7549783 173.51634,63.1864772 C173.647895,63.6179762 173.837331,63.9889544 174.084653,64.2994232 C174.331976,64.6098919 174.634547,64.8493176 174.992375,65.0177074 C175.350203,65.1860972 175.760647,65.2702909 176.223719,65.2702909 C176.676267,65.2702909 177.08408,65.1860972 177.447171,65.0177074 C177.810261,64.8493176 178.115463,64.6098919 178.362786,64.2994232 C178.610108,63.9889544 178.799544,63.6179762 178.931099,63.1864772 C179.062653,62.7549783 179.128429,62.2708649 179.128429,61.7341223 C179.128429,61.1973797 179.062653,60.7106352 178.931099,60.2738741 C178.799544,59.837113 178.610108,59.4635037 178.362786,59.153035 C178.115463,58.8425662 177.810261,58.6031406 177.447171,58.4347507 C177.08408,58.2663609 176.676267,58.1821673 176.223719,58.1821673 C175.760647,58.1821673 175.350203,58.268992 174.992375,58.442644 C174.634547,58.616296 174.331976,58.8583527 174.084653,59.1688214 C173.837331,59.4792902 173.647895,59.8528995 173.51634,60.2896606 C173.384786,60.7264217 173.31901,61.2079041 173.31901,61.7341223 Z M181.670051,61.7341223 C181.670051,62.6707907 181.530605,63.4943098 181.251709,64.2047044 C180.972814,64.9150989 180.591311,65.5097166 180.10719,65.9885751 C179.62307,66.4674337 179.046869,66.8278877 178.378572,67.0699481 C177.710275,67.3120085 176.991998,67.4330368 176.223719,67.4330368 C175.47649,67.4330368 174.771368,67.3120085 174.108333,67.0699481 C173.445298,66.8278877 172.866467,66.4674337 172.371822,65.9885751 C171.877176,65.5097166 171.487781,64.9150989 171.203623,64.2047044 C170.919465,63.4943098 170.777388,62.6707907 170.777388,61.7341223 C170.777388,60.7974539 170.924727,59.9739348 171.21941,59.2635402 C171.514092,58.5531457 171.91138,57.955897 172.411288,57.4717763 C172.911195,56.9876555 173.490026,56.6245704 174.147799,56.3825101 C174.805572,56.1404497 175.497538,56.0194213 176.223719,56.0194213 C176.970949,56.0194213 177.676071,56.1404497 178.339106,56.3825101 C179.002141,56.6245704 179.580972,56.9876555 180.075617,57.4717763 C180.570262,57.955897 180.959658,58.5531457 181.243816,59.2635402 C181.527974,59.9739348 181.670051,60.7974539 181.670051,61.7341223 Z M187.323464,56.1457131 C188.954741,56.1457131 190.207121,56.4324977 191.080643,57.0060755 C191.954165,57.5796533 192.39092,58.5189387 192.39092,59.8239598 C192.39092,61.1395053 191.948903,62.0893149 191.064857,62.6734171 C190.18081,63.2575193 188.917905,63.549566 187.276105,63.549566 L186.502568,63.549566 L186.502568,67.2120263 L184.039879,67.2120263 L184.039879,56.4298695 C184.576622,56.3246258 185.144929,56.2509564 185.744817,56.2088589 C186.344706,56.1667615 186.870916,56.1457131 187.323464,56.1457131 Z M187.481329,58.2453131 C187.302415,58.2453131 187.126134,58.2505752 186.952482,58.2610996 C186.77883,58.271624 186.62886,58.2821482 186.502568,58.2926725 L186.502568,61.4499659 L187.276105,61.4499659 C188.128578,61.4499659 188.770555,61.3341996 189.202054,61.1026636 C189.633553,60.8711276 189.849299,60.4396352 189.849299,59.8081734 C189.849299,59.5029668 189.794047,59.2503859 189.683541,59.0504229 C189.573035,58.85046 189.415172,58.6899659 189.209947,58.5689357 C189.004722,58.4479055 188.754772,58.3637119 188.46009,58.3163522 C188.165408,58.2689926 187.839157,58.2453131 187.481329,58.2453131 Z M197.728604,56.1457131 C199.370405,56.1457131 200.628048,56.4377598 201.50157,57.021862 C202.375092,57.6059642 202.811847,58.5136769 202.811847,59.7450275 C202.811847,60.513306 202.635566,61.1368652 202.283,61.6157238 C201.930434,62.0945824 201.422641,62.4708227 200.759606,62.7444562 C200.980618,63.0180896 201.21215,63.3311848 201.45421,63.683751 C201.696271,64.0363171 201.935696,64.4046644 202.172495,64.7888036 C202.409293,65.1729429 202.638194,65.5728627 202.859206,65.9885751 C203.080218,66.4042875 203.28544,66.8121005 203.474878,67.2120263 L200.712246,67.2120263 C200.512284,66.8541979 200.309693,66.4911128 200.104467,66.1227601 C199.899242,65.7544073 199.688758,65.3965843 199.473009,65.0492803 C199.257259,64.7019763 199.044144,64.3730949 198.833657,64.0626262 C198.62317,63.7521574 198.412686,63.4706349 198.202198,63.2180502 L196.98664,63.2180502 L196.98664,67.2120263 L194.523951,67.2120263 L194.523951,56.4298695 C195.060694,56.3246258 195.615846,56.2509564 196.189424,56.2088589 C196.763002,56.1667615 197.276057,56.1457131 197.728604,56.1457131 Z M197.870682,58.2453131 C197.691768,58.2453131 197.531274,58.2505752 197.389195,58.2610996 C197.247116,58.271624 197.112933,58.2821482 196.98664,58.2926725 L196.98664,61.2605283 L197.681245,61.2605283 C198.607389,61.2605283 199.270414,61.144762 199.67034,60.913226 C200.070265,60.68169 200.270225,60.2870323 200.270225,59.729241 C200.270225,59.1924985 200.067634,58.810996 199.662446,58.5847222 C199.257258,58.3584484 198.66001,58.2453131 197.870682,58.2453131 Z M205.371113,56.2720048 L207.833801,56.2720048 L207.833801,67.2120263 L205.371113,67.2120263 L205.371113,56.2720048 Z M213.881877,56.1457131 C215.523678,56.1457131 216.78132,56.4377598 217.654842,57.021862 C218.528365,57.6059642 218.965119,58.5136769 218.965119,59.7450275 C218.965119,60.513306 218.788839,61.1368652 218.436272,61.6157238 C218.083706,62.0945824 217.575913,62.4708227 216.912878,62.7444562 C217.13389,63.0180896 217.365423,63.3311848 217.607483,63.683751 C217.849543,64.0363171 218.088969,64.4046644 218.325767,64.7888036 C218.562565,65.1729429 218.791467,65.5728627 219.012478,65.9885751 C219.23349,66.4042875 219.438712,66.8121005 219.628151,67.2120263 L216.865519,67.2120263 C216.665556,66.8541979 216.462965,66.4911128 216.25774,66.1227601 C216.052515,65.7544073 215.842031,65.3965843 215.626281,65.0492803 C215.410532,64.7019763 215.197417,64.3730949 214.986929,64.0626262 C214.776442,63.7521574 214.565958,63.4706349 214.355471,63.2180502 L213.139913,63.2180502 L213.139913,67.2120263 L210.677224,67.2120263 L210.677224,56.4298695 C211.213967,56.3246258 211.769118,56.2509564 212.342696,56.2088589 C212.916274,56.1667615 213.429329,56.1457131 213.881877,56.1457131 Z M214.023955,58.2453131 C213.845041,58.2453131 213.684547,58.2505752 213.542468,58.2610996 C213.400389,58.271624 213.266205,58.2821482 213.139913,58.2926725 L213.139913,61.2605283 L213.834517,61.2605283 C214.760661,61.2605283 215.423686,61.144762 215.823612,60.913226 C216.223538,60.68169 216.423498,60.2870323 216.423498,59.729241 C216.423498,59.1924985 216.220907,58.810996 215.815719,58.5847222 C215.410531,58.3584484 214.813282,58.2453131 214.023955,58.2453131 Z M221.524385,67.2120263 L221.524385,56.2720048 L228.912452,56.2720048 L228.912452,58.3400319 L223.987074,58.3400319 L223.987074,60.4869914 L228.359925,60.4869914 L228.359925,62.5076592 L223.987074,62.5076592 L223.987074,65.1439991 L229.27554,65.1439991 L229.27554,67.2120263 L221.524385,67.2120263 Z M239.420684,61.6394035 C239.420684,61.9446101 239.368063,62.2313947 239.26282,62.4997659 C239.157576,62.7681372 239.004975,63.0049319 238.805012,63.2101569 C238.605049,63.415382 238.365623,63.5785072 238.086728,63.6995374 C237.807832,63.8205676 237.494737,63.8810818 237.147433,63.8810818 C236.800129,63.8810818 236.487034,63.8205676 236.208138,63.6995374 C235.929243,63.5785072 235.689817,63.415382 235.489854,63.2101569 C235.289891,63.0049319 235.13729,62.7681372 235.032047,62.4997659 C234.926803,62.2313947 234.874182,61.9446101 234.874182,61.6394035 C234.874182,61.3447213 234.926803,61.0605678 235.032047,60.7869343 C235.13729,60.5133008 235.289891,60.2738751 235.489854,60.0686501 C235.689817,59.863425 235.929243,59.7002998 236.208138,59.5792696 C236.487034,59.4582394 236.800129,59.3977252 237.147433,59.3977252 C237.494737,59.3977252 237.807832,59.4582394 238.086728,59.5792696 C238.365623,59.7002998 238.605049,59.863425 238.805012,60.0686501 C239.004975,60.2738751 239.157576,60.5133008 239.26282,60.7869343 C239.368063,61.0605678 239.420684,61.3447213 239.420684,61.6394035 Z M251.065543,58.1663808 C249.918387,58.1663808 249.089606,58.484738 248.579174,59.121462 C248.068742,59.7581861 247.81353,60.6290641 247.81353,61.7341223 C247.81353,62.2708649 247.876676,62.7576094 248.002968,63.1943705 C248.12926,63.6311316 248.318696,64.0073719 248.571281,64.3231029 C248.823866,64.6388338 249.139592,64.8835216 249.518469,65.0571736 C249.897346,65.2308256 250.339363,65.3176503 250.844532,65.3176503 C251.118165,65.3176503 251.352329,65.3123882 251.54703,65.3018638 C251.741731,65.2913394 251.912749,65.270291 252.06009,65.2387179 L252.06009,61.4341794 L254.522779,61.4341794 L254.522779,66.8489375 C254.228097,66.9647056 253.754507,67.088365 253.101997,67.2199195 C252.449486,67.3514741 251.644384,67.4172504 250.686667,67.4172504 C249.865767,67.4172504 249.121179,67.2909599 248.452882,67.0383752 C247.784585,66.7857904 247.213647,66.4174432 246.740051,65.9333225 C246.266454,65.4492017 245.900738,64.8545841 245.642891,64.1494517 C245.385044,63.4443193 245.256123,62.6392176 245.256123,61.7341223 C245.256123,60.8185026 245.3982,60.0081388 245.682357,59.3030064 C245.966515,58.597874 246.355911,58.0006253 246.850556,57.5112424 C247.345201,57.0218595 247.926663,56.6508813 248.59496,56.3982965 C249.263258,56.1457118 249.976273,56.0194213 250.734027,56.0194213 C251.249721,56.0194213 251.715417,56.053625 252.131129,56.1220333 C252.546841,56.1904417 252.904664,56.2693733 253.204609,56.3588304 C253.504553,56.4482874 253.751872,56.5403742 253.946573,56.6350935 C254.141273,56.7298128 254.280719,56.8034822 254.364914,56.8561041 L253.654523,58.8294124 C253.317743,58.6504982 252.930979,58.4952662 252.494218,58.3637116 C252.057457,58.2321571 251.581236,58.1663808 251.065543,58.1663808 Z M261.407537,67.4330368 C260.639258,67.4330368 259.976233,67.3251637 259.418442,67.1094143 C258.860651,66.8936648 258.400217,66.5937249 258.037126,66.2095856 C257.674036,65.8254464 257.405668,65.3676434 257.232016,64.836163 C257.058364,64.3046827 256.97154,63.7179582 256.97154,63.075972 L256.97154,56.2720048 L259.434228,56.2720048 L259.434228,62.8707479 C259.434228,63.3127712 259.484218,63.6890116 259.5842,63.9994803 C259.684181,64.309949 259.820996,64.56253 259.994648,64.7572307 C260.1683,64.9519314 260.378784,65.0913772 260.626107,65.1755721 C260.873429,65.259767 261.144428,65.3018638 261.43911,65.3018638 C262.038998,65.3018638 262.525743,65.1176902 262.899358,64.7493375 C263.272973,64.3809847 263.459777,63.7547945 263.459777,62.8707479 L263.459777,56.2720048 L265.922466,56.2720048 L265.922466,63.075972 C265.922466,63.7179582 265.833011,64.3073137 265.654096,64.8440563 C265.475182,65.3807988 265.201553,65.8412328 264.8332,66.2253721 C264.464847,66.6095114 263.99652,66.9068202 263.428205,67.1173075 C262.859889,67.3277948 262.18634,67.4330368 261.407537,67.4330368 Z M271.591666,65.3334367 C271.93897,65.3334367 272.225755,65.3044952 272.452029,65.2466112 C272.678303,65.1887272 272.859845,65.1097956 272.996662,65.0098142 C273.133479,64.9098327 273.228196,64.7914354 273.280818,64.6546187 C273.33344,64.5178019 273.359751,64.3652009 273.359751,64.1968111 C273.359751,63.8389828 273.191363,63.5416739 272.854584,63.3048757 C272.517804,63.0680776 271.938973,62.8128656 271.118072,62.5392321 C270.760244,62.4129397 270.402421,62.2682319 270.044593,62.1051043 C269.686764,61.9419766 269.365776,61.7367546 269.081618,61.4894321 C268.79746,61.2421095 268.565928,60.9421696 268.387014,60.5896035 C268.208099,60.2370373 268.118644,59.8081759 268.118644,59.3030064 C268.118644,58.7978369 268.213362,58.342665 268.4028,57.937477 C268.592239,57.532289 268.860606,57.1876213 269.20791,56.9034635 C269.555214,56.6193056 269.976182,56.4009284 270.470827,56.2483251 C270.965472,56.0957218 271.523255,56.0194213 272.144193,56.0194213 C272.880898,56.0194213 273.517613,56.0983529 274.054355,56.2562183 C274.591098,56.4140838 275.033114,56.5877332 275.380418,56.7771717 L274.670027,58.7189071 C274.364821,58.5610417 274.025415,58.421596 273.6518,58.3005658 C273.278185,58.1795356 272.828276,58.1190214 272.302057,58.1190214 C271.712693,58.1190214 271.289094,58.200584 271.031247,58.3637116 C270.7734,58.5268393 270.644478,58.7767892 270.644478,59.1135688 C270.644478,59.3135317 270.691837,59.481919 270.786557,59.6187357 C270.881276,59.7555525 271.015459,59.8792119 271.189111,59.9897177 C271.362763,60.1002235 271.562723,60.2002035 271.788997,60.2896606 C272.015271,60.3791177 272.265221,60.4712045 272.538854,60.5659238 C273.10717,60.776411 273.601808,60.9842641 274.022782,61.1894892 C274.443757,61.3947143 274.793687,61.63414 275.072582,61.9077734 C275.351478,62.1814069 275.559331,62.5023952 275.696148,62.8707479 C275.832964,63.2391006 275.901372,63.6863794 275.901372,64.2125976 C275.901372,65.2334609 275.543549,66.0254074 274.827892,66.5884608 C274.112235,67.1515143 273.033504,67.4330368 271.591666,67.4330368 C271.107546,67.4330368 270.670791,67.4040953 270.28139,67.3462113 C269.891988,67.2883273 269.54732,67.2172889 269.247376,67.133094 C268.947432,67.048899 268.689589,66.9594433 268.473839,66.864724 C268.25809,66.7700047 268.076547,66.680549 267.929206,66.5963541 L268.623811,64.6388322 C268.950066,64.8177464 269.352617,64.9782405 269.831475,65.1203194 C270.310334,65.2623983 270.897058,65.3334367 271.591666,65.3334367 Z M285.594262,56.2720048 L285.594262,58.3716049 L282.294891,58.3716049 L282.294891,67.2120263 L279.832202,67.2120263 L279.832202,58.3716049 L276.53283,58.3716049 L276.53283,56.2720048 L285.594262,56.2720048 Z M292.218817,67.2120263 C292.103049,66.8331492 291.974128,66.4437536 291.832049,66.0438277 C291.68997,65.6439019 291.550524,65.2439821 291.413707,64.8440563 L287.151361,64.8440563 C287.014545,65.2439821 286.875099,65.6439019 286.73302,66.0438277 C286.590941,66.4437536 286.46202,66.8331492 286.346252,67.2120263 L283.788844,67.2120263 C284.199294,66.0332975 284.58869,64.9440422 284.957042,63.9442277 C285.325395,62.9444131 285.685849,62.0024967 286.038415,61.1184501 C286.390982,60.2344035 286.73828,59.3950981 287.080322,58.6005086 C287.422364,57.8059192 287.777556,57.029759 288.145909,56.2720048 L290.498092,56.2720048 C290.855921,57.029759 291.208482,57.8059192 291.555786,58.6005086 C291.90309,59.3950981 292.253019,60.2344035 292.605586,61.1184501 C292.958152,62.0024967 293.318606,62.9444131 293.686959,63.9442277 C294.055311,64.9440422 294.444707,66.0332975 294.855157,67.2120263 L292.218817,67.2120263 Z M289.266748,58.7504801 C289.214126,58.9083455 289.135195,59.1240918 289.029951,59.3977252 C288.924707,59.6713587 288.803679,59.9870849 288.666862,60.3449132 C288.530045,60.7027416 288.380075,61.0973993 288.216948,61.5288982 C288.05382,61.9603972 287.888064,62.412938 287.719674,62.8865344 L290.829608,62.8865344 C290.661218,62.412938 290.498093,61.9603972 290.340228,61.5288982 C290.182362,61.0973993 290.032392,60.7027416 289.890313,60.3449132 C289.748234,59.9870849 289.624575,59.6713587 289.519331,59.3977252 C289.414088,59.1240918 289.329894,58.9083455 289.266748,58.7504801 Z M299.79818,56.1457131 C301.439981,56.1457131 302.697623,56.4377598 303.571145,57.021862 C304.444668,57.6059642 304.881422,58.5136769 304.881422,59.7450275 C304.881422,60.513306 304.705142,61.1368652 304.352575,61.6157238 C304.000009,62.0945824 303.492216,62.4708227 302.829181,62.7444562 C303.050193,63.0180896 303.281726,63.3311848 303.523786,63.683751 C303.765846,64.0363171 304.005272,64.4046644 304.24207,64.7888036 C304.478868,65.1729429 304.70777,65.5728627 304.928781,65.9885751 C305.149793,66.4042875 305.355015,66.8121005 305.544454,67.2120263 L302.781822,67.2120263 C302.581859,66.8541979 302.379268,66.4911128 302.174043,66.1227601 C301.968818,65.7544073 301.758334,65.3965843 301.542584,65.0492803 C301.326835,64.7019763 301.11372,64.3730949 300.903232,64.0626262 C300.692745,63.7521574 300.482261,63.4706349 300.271774,63.2180502 L299.056216,63.2180502 L299.056216,67.2120263 L296.593527,67.2120263 L296.593527,56.4298695 C297.13027,56.3246258 297.685421,56.2509564 298.258999,56.2088589 C298.832577,56.1667615 299.345632,56.1457131 299.79818,56.1457131 Z M299.940258,58.2453131 C299.761344,58.2453131 299.60085,58.2505752 299.458771,58.2610996 C299.316692,58.271624 299.182508,58.2821482 299.056216,58.2926725 L299.056216,61.2605283 L299.75082,61.2605283 C300.676964,61.2605283 301.339989,61.144762 301.739915,60.913226 C302.139841,60.68169 302.339801,60.2870323 302.339801,59.729241 C302.339801,59.1924985 302.13721,58.810996 301.732022,58.5847222 C301.326834,58.3584484 300.729585,58.2453131 299.940258,58.2453131 Z M307.440688,67.2120263 L307.440688,56.2720048 L314.828755,56.2720048 L314.828755,58.3400319 L309.903377,58.3400319 L309.903377,60.4869914 L314.276228,60.4869914 L314.276228,62.5076592 L309.903377,62.5076592 L309.903377,65.1439991 L315.191843,65.1439991 L315.191843,67.2120263 L307.440688,67.2120263 Z" id="CONOSCERE•SCOPRIRE•GUSTARE" fill="#999999"></path>
            <g id="Group" fill="#231F20">
                <path d="M87.4943,13.315 C89.7801,13.315 93.0642,8.6406 89.8724,7.7142 C85.8012,6.5319 83.5538,13.315 87.4943,13.315" id="Fill-1"></path>
                <path d="M7.4389,14.1738 C7.4389,8.1518 18.2003,5.6641 22.3613,5.6641 C18.6394,7.7004 16.841,11.6428 15.6947,15.5369 C15.0692,17.6604 12.0898,16.5952 10.1781,16.1035 C9.2968,15.8768 7.4389,15.3901 7.4389,14.1738 M36.1728,3.7425 C38.7273,3.7425 35.8904,10.9002 35.5467,11.7288 C33.9024,15.6911 31.5621,19.5542 28.3542,22.4457 C29.0831,19.4551 31.3565,3.7425 36.1728,3.7425 M39.826,4.7953 C39.826,0.8343 35.9213,0.3178 33.3054,2.3385 C30.248,4.6999 28.3437,8.5717 26.8617,12.0397 C24.9512,16.5091 23.6117,21.2634 22.8927,26.071 C22.4481,29.038 18.492,31.5895 15.9158,32.8442 C18.4505,28.3933 19.081,23.086 20.1963,18.1534 C20.9791,14.6897 21.9805,11.2836 23.5039,8.0664 C24.9556,5.0009 27.9275,3.8236 28.5332,0.1915 C26.248,0.3153 24.0954,1.1904 21.7644,1.3124 C19.2606,1.4437 16.7754,1.9428 14.4332,2.8426 C10.8549,4.2175 7.5157,6.5485 5.2795,9.6951 C0.3159,16.6807 8.3629,19.6929 14.5026,20.1524 C13.7575,24.2391 13.202,28.5258 11.4036,32.3122 C10.5886,34.027 9.2404,36.0874 7.102,36.0874 C3.8043,36.0874 4.4738,31.9319 4.4738,29.7712 C-3.0438,29.7712 -0.0316,37.7471 5.765,38.398 C11.5126,39.0426 18.5564,34.0041 22.4623,30.1924 C22.2319,34.4246 22.6264,39.5889 27.9727,36.5649 C30.183,35.3157 32.039,33.4486 33.7842,31.6334 C35.9381,29.3947 36.8905,28.6125 36.8905,25.6294 C34.4301,28.3097 31.6451,32.4063 28.3505,34.0871 C27.019,34.7664 27.0358,27.6861 28.0855,26.733 C34.1322,21.2455 39.826,13.2579 39.826,4.7953" id="Fill-2"></path>
                <path d="M156.111,31.3628 C154.931,32.6286 152.966,34.6636 151.078,34.6636 C148.405,34.6636 148.627,30.858 149.028,29.1191 C150.03,24.7605 153.965,19.8458 158.803,19.8458 C157.906,23.6854 157.008,27.5238 156.111,31.3628 M104.981,30.2394 C103.42,29.2076 100.736,24.0124 104.466,24.0124 C107.633,24.0124 106.23,28.8466 104.981,30.2394 C103.6,29.3265 105.589,29.5606 104.981,30.2394 M61.58,45.1593 C59.402,45.1593 56.9106,41.8956 58.6978,39.9907 C60.3897,38.1873 63.8014,38.2418 65.9807,37.3401 C65.606,39.4352 64.4461,45.1593 61.58,45.1593 M68.0411,2.1341 C70.865,2.1341 73.1279,7.4563 72.3854,9.76 C71.7228,11.818 65.1106,13.9991 63.4063,14.845 C60.1482,16.4837 56.8827,18.1068 53.6209,19.7374 C53.6209,11.9709 59.402,2.1341 68.0411,2.1341 M181.252,4.5605 C183.806,4.5605 180.97,11.7176 180.626,12.5462 C178.981,16.5091 176.641,20.3722 173.433,23.2637 C174.163,20.2731 176.435,4.5605 181.252,4.5605 M191.903,20.1734 C196.089,20.1734 193.742,27.8402 189.714,26.64 C184.819,25.1822 188.182,20.1734 191.903,20.1734 M189.071,35.8111 C184.249,35.8111 184.731,29.251 186.145,26.2833 C188.941,30.5899 195.099,28.7196 196.905,24.4769 C199.389,18.6357 192.51,17.1116 188.335,18.7181 C183.115,20.7252 182.698,25.734 179.352,29.3092 C177.939,30.819 172.048,38.2561 172.361,32.4508 C172.498,29.8932 172.341,28.384 174.081,26.6846 C176.827,24.0037 179.282,20.9717 181.223,17.6579 C183.329,14.0635 185.68,8.8763 184.805,4.5884 C183.778,-0.4384 178.431,2.707 176.487,5.0157 C173.431,8.6466 171.542,13.3129 170.114,17.7861 C169.298,20.3419 168.646,22.9534 168.182,25.5965 C167.621,28.7989 165.792,30.5633 163.145,32.5047 C159.626,35.0865 160.817,30.1025 161.198,28.1437 C161.807,25.0287 162.597,21.9526 163.204,18.8388 C158.132,17.2392 152.973,18.6301 149.006,22.1254 C147.225,23.6953 145.743,25.6424 144.806,27.8303 C144.143,29.3792 144.216,29.8635 142.903,31.1027 C142.877,31.1274 140.1,33.9501 140.1,32.5103 C140.1,29.3773 142.281,25.8269 143.056,22.8054 C144.484,17.2398 139.647,17.4399 136.148,20.1672 C133.716,22.0629 131.624,24.6168 130.174,27.3367 C131.063,24.5184 131.879,21.6764 132.702,18.8388 C127.764,18.7577 127.287,21.207 126.063,25.6758 C125.195,28.8441 124.204,30.0548 121.735,32.1876 C121.086,32.7481 117.986,35.9052 117.986,33.425 C117.986,30.2691 120.647,26.4586 121.966,23.704 C122.144,23.3318 123.767,20.6571 123.11,20.3685 C120.937,19.4142 118.356,21.6467 116.113,19.6606 C119.826,17.7514 115.763,13.6387 112.828,17.3142 C110.596,20.1084 113.185,21.8975 115.832,22.5391 C113.842,24.7853 109.538,31.473 106.269,31.0822 C109.023,28.4608 110.034,21.7656 104.676,21.7656 C98.3863,21.7656 99.6044,29.334 103.647,31.808 C101.848,34.1607 98.3609,36.0136 95.9847,33.277 C93.7874,30.7478 94.5164,26.2233 95.9915,23.5095 C97.7107,20.3481 101.029,18.8624 104.536,18.8624 C106.657,17.4157 102.635,17.6207 102.046,17.6857 C100.187,17.892 98.3442,18.349 96.6492,19.1491 C93.5825,20.5964 91.2409,23.185 90.2996,26.4629 C89.6079,28.8726 89.7664,29.7501 87.8677,31.6099 C87.192,32.2719 85.3744,34.6165 84.2875,34.6165 C81.9745,34.6165 86.7207,20.3666 87.1666,18.8388 C82.3454,18.6958 81.7831,21.6021 80.7056,25.7006 L80.7056,25.3092 C77.9918,27.9796 74.9567,31.1832 71.4589,32.8224 C72.3873,28.9054 73.3156,24.989 74.2445,21.072 L69.746,21.072 C69.6605,21.072 68.3464,25.591 67.4719,26.2214 C65.066,27.9567 61.5472,29.6523 58.5919,28.2675 C57.6655,27.8334 52.6882,22.5992 54.1981,21.809 C60.5712,18.4772 66.9437,15.1454 73.3162,11.8136 C74.452,11.2197 76.2801,10.8865 77.0146,9.7768 C78.7381,7.1751 76.1581,3.3925 74.1343,1.8777 C68.8691,-2.0641 60.7557,0.867 56.1649,4.5512 C51.1041,8.6125 48.0343,14.881 47.7054,21.3389 C47.5729,23.9437 42.74,23.8947 43.9643,26.1886 C44.7935,27.7405 46.9524,25.6721 48.0962,25.0039 C49.4946,28.7252 52.0782,32.8701 56.547,32.8701 C60.7892,32.8701 65.4209,29.7594 68.3451,26.9237 C67.9209,28.9419 67.5964,30.9726 67.1066,32.9772 C66.6316,34.9231 66.3114,34.6698 64.3959,35.2271 C61.424,36.0923 54.0891,36.6478 54.0891,40.7815 C54.0891,47.7944 63.9445,47.5008 67.3586,43.5008 C69.4332,41.0695 69.5125,36.7215 71.955,35.1763 C74.8452,33.3482 77.5385,31.0327 79.968,28.6342 C79.5679,30.3031 76.9198,38.409 80.7997,38.409 C84.3897,38.2356 87.5661,34.331 89.9033,32.039 C91.3512,41.3538 101.465,38.7812 105.309,32.7209 C109.901,33.2714 114.628,27.0525 117.495,23.8737 C116.016,27.382 113.898,31.0413 113.279,34.8308 C111.923,43.1194 123.048,33.3847 124.536,31.9721 C124.144,33.8517 123.715,35.8018 123.69,37.7303 L127.969,37.7303 C128.379,37.7303 129.329,33.9322 129.529,33.3909 C130.78,30.0146 132.593,24.4397 136.071,22.6747 C138.533,21.4244 137.945,24.7041 137.491,25.9941 C136.542,28.6843 135.328,31.2829 134.788,34.1025 C133.178,42.4988 141.281,35.3076 143.807,32.95 C144.112,41.6715 152.348,37.617 155.83,33.072 C154.254,43.7294 164.43,34.0468 167.546,31.006 C167.422,33.2621 166.725,38.8562 170.35,38.357 C174.432,37.7947 177.808,33.6188 180.393,30.7986 C180.051,36.4917 184.499,39.8055 189.896,37.8616 C194.166,36.3239 199.674,32.1338 199.674,27.4779 C197.031,29.9161 193.081,35.8111 189.071,35.8111" id="Fill-3"></path>
                <path d="M217.507,29.6779 C217.023,31.6608 211.095,35.9729 209.706,33.066 C207.951,29.3911 211.156,23.4329 213.937,21.1211 C215.336,19.9581 217.647,19.0124 219.289,20.3191 C219.856,20.7706 219.272,21.9188 219.137,22.5083 C218.594,24.8982 218.051,27.288 217.507,29.6779 M237.733,20.173 C241.918,20.173 239.572,27.8398 235.543,26.6402 C230.648,25.1818 234.011,20.173 237.733,20.173 M258.145,4.5601 C260.699,4.5601 257.863,11.7172 257.519,12.5464 C255.875,16.5086 253.535,20.3724 250.327,23.2639 C251.056,20.2727 253.329,4.5601 258.145,4.5601 M261.797,5.6135 C261.797,-0.3503 255.624,2.3436 253.366,5.0326 C249.743,9.349 247.671,15.0868 246.222,20.4554 C245.546,22.9629 245.63,27.3054 243.838,29.0994 C241.808,31.1319 239.808,33.3694 237.356,34.9078 C231.362,38.6699 230.095,30.229 231.973,26.2835 C237.555,34.8774 248.634,20.173 239.843,18.273 C235.989,17.4394 232.141,19.0595 229.65,22.0178 C228.37,23.5388 227.435,25.3422 226.861,27.2422 C226.132,29.6543 225.419,30.7951 223.376,32.4393 C220.976,34.3721 221.596,30.6953 221.873,29.349 C222.462,26.4935 223.226,23.672 223.99,20.8598 C225.499,15.3054 228.298,9.2852 228.931,3.5531 C224.554,3.4323 223.877,4.7539 222.802,8.5954 C221.872,11.916 220.942,15.2379 220.012,18.5585 C212.701,16.3897 206.638,23.763 204.894,30.1665 C204.227,32.6201 203.708,38.4092 207.629,38.4092 C211.179,38.4092 214.764,34.5894 216.852,32.1587 C216.48,33.6797 215.684,39.4862 219.048,38.2724 C221.83,37.2685 224.2,34.3293 226.216,32.2993 C226.471,36.3142 229.537,38.8749 233.527,38.39 C237.978,37.8494 241.509,34.3151 244.428,31.2143 C244.187,36.1395 245.257,40.5055 250.672,36.9297 C254.281,34.5473 258.848,30.8607 258.848,26.447 C256.464,29.1638 253.6,33.2443 250.317,34.9047 C248.98,35.5815 249.008,28.5031 250.057,27.5506 C256.103,22.0631 261.797,14.0755 261.797,5.6135" id="Fill-4"></path>
                <path d="M306.277,13.315 C308.564,13.315 311.847,8.6406 308.655,7.7142 C304.584,6.5326 302.337,13.315 306.277,13.315" id="Fill-5"></path>
                <path d="M314.377,12.3716 C314.432,12.1784 314.488,11.9864 314.541,11.7932 C315.021,10.0524 314.747,11.0426 314.377,12.3716" id="Fill-6"></path>
                <path d="M346.845,30.2391 C345.284,29.2073 342.6,24.0121 346.33,24.0121 C349.496,24.0121 348.094,28.8463 346.845,30.2391 C345.464,29.3262 347.453,29.5603 346.845,30.2391 L346.845,30.2391 Z M287.799,3.5291 L287.716,3.5291 L287.799,3.5291 Z M290.357,3.5303 C289.507,3.5297 288.565,3.5297 288.051,3.5291 C288.446,3.5297 289.175,3.5297 290.357,3.5303 L290.357,3.5303 Z M292.077,3.5309 L291.991,3.5309 L292.077,3.5309 Z M292.092,3.5309 C292.132,3.5309 292.132,3.5309 292.092,3.5309 L292.092,3.5309 Z M318.261,14.371 C319.14,11.3773 320.318,8.38 321.819,5.6427 C322.387,4.606 324.968,1.6464 325.27,4.7528 C325.607,8.2109 320.937,15.0169 317.888,16.1007 C317.932,15.5068 318.057,14.9302 318.261,14.371 C318.543,13.4123 318.1,14.9178 318.261,14.371 L318.261,14.371 Z M348.858,31.0819 L348.132,31.0819 C350.886,28.4611 351.898,21.7653 346.541,21.7653 C340.25,21.7653 341.468,29.3336 345.511,31.8077 C341.644,36.8667 336.132,34.1554 336.566,28.131 C336.961,22.6645 340.872,18.8627 346.4,18.8627 C348.898,17.159 342.271,17.9226 341.594,18.083 C339.222,18.6453 336.943,19.7179 335.173,21.4191 C333.471,23.0547 332.361,25.1968 331.904,27.5061 C331.428,29.9121 327.945,32.863 325.8,34.078 C328.825,31.6046 330.418,25.2835 328.506,21.7665 C326.355,17.8111 320.096,19.8461 319.082,23.6845 C327.703,23.6845 325.471,32.8587 319.277,35.5284 C315.483,37.1646 314.483,33.8241 314.739,30.7915 C315.102,26.4923 316.068,21.6074 319.129,18.6144 C321.411,16.3843 334.655,1.9406 326.074,0.7788 C318.678,-0.2226 315.127,9.5715 313.639,15.0404 C313.881,14.1505 314.131,13.2612 314.377,12.3713 C312.986,17.3361 311.42,22.2626 310.431,27.3302 C309.995,29.5814 305.561,32.8816 303.737,34.2471 C301.284,36.0833 302.954,29.2488 303.12,28.606 C303.971,25.3237 304.999,22.0929 305.95,18.8392 C299.745,18.654 299.542,25.1101 298.433,29.9944 C293.326,33.7634 284.825,37.2401 279.298,32.274 C269.501,23.4714 278.88,3.5303 290.454,3.5303 C290.934,3.5303 291.414,3.5309 291.894,3.5309 C289.008,3.5309 292.014,3.6189 292.61,3.8282 C293.724,4.2189 294.501,5.0469 294.839,6.1939 C295.587,8.7255 294.613,11.3098 292.467,12.7769 C290.927,13.8303 287.197,14.3369 286.32,16.0536 C284.898,18.8348 290.88,15.6393 291.161,15.4882 C295.499,13.1485 302.273,11.5247 299.042,5.5318 C296.129,0.1298 289.683,-0.7125 284.315,1.1256 C273.593,4.7974 267.994,19.4715 271.163,29.865 C275.121,42.841 289.448,39.5284 297.769,33.242 C295.872,44.2028 307.262,33.4476 309.878,30.8664 C309.156,37.1101 311.046,39.7928 317.68,38.8596 C323.21,38.0811 327.748,35.0608 331.67,31.2287 C332.177,37.5256 338.61,40.5335 343.744,36.6252 C345.131,35.568 346.244,34.1852 347.172,32.7212 C348.433,32.8723 349.672,32.9008 350.806,32.2307 C353.33,30.7419 353.868,29.5622 353.868,26.9153 C352.69,28.1174 350.805,31.0819 348.858,31.0819 L348.858,31.0819 Z" id="Fill-7"></path>
            </g>
        </g>
    </g>
</svg>