<?xml version="1.0" encoding="UTF-8"?>
<svg width="34px" height="34px" viewBox="0 0 34 34" version="1.1" xmlns="http://www.w3.org/2000/svg" xmlns:xlink="http://www.w3.org/1999/xlink">
    <!-- Generator: Sketch 47.1 (45422) - http://www.bohemiancoding.com/sketch -->
    <title>instagram</title>
    <desc>Created with Sketch.</desc>
    <defs>
        <radialGradient cx="14.9305469%" cy="100.347188%" fx="14.9305469%" fy="100.347188%" r="127.774922%" id="radialGradient-1">
            <stop stop-color="#FFB140" offset="0%"></stop>
            <stop stop-color="#FF5445" offset="25.59%"></stop>
            <stop stop-color="#FC2B82" offset="59.9%"></stop>
            <stop stop-color="#8E40B7" offset="100%"></stop>
        </radialGradient>
    </defs>
    <g id="Page-1" stroke="none" stroke-width="1" fill="none" fill-rule="evenodd">
        <g id="instagram">
            <rect id="Rectangle-path" x="0" y="0" width="34" height="34"></rect>
            <path d="M28.1145469,7.92545312 C28.1145469,9.05223437 27.2010625,9.96545312 26.0745469,9.96545312 C24.9480313,9.96545312 24.0345469,9.05223437 24.0345469,7.92545312 C24.0345469,6.79867187 24.9480313,5.88545312 26.0745469,5.88545312 C27.2013281,5.88545312 28.1145469,6.79867187 28.1145469,7.92545312 Z M17,22.6665781 C13.8704063,22.6665781 11.3334219,20.1295937 11.3334219,17 C11.3334219,13.8704063 13.8704063,11.3334219 17,11.3334219 C20.1295937,11.3334219 22.6665781,13.8704063 22.6665781,17 C22.6665781,20.1295937 20.1295937,22.6665781 17,22.6665781 Z M17,8.27023437 C12.1786406,8.27023437 8.27023437,12.1786406 8.27023437,17 C8.27023437,21.8213594 12.1786406,25.7297656 17,25.7297656 C21.8213594,25.7297656 25.7297656,21.8213594 25.7297656,17 C25.7297656,12.1786406 21.8213594,8.27023437 17,8.27023437 Z M17,3.0631875 C21.5392656,3.0631875 22.0768906,3.08045313 23.8693281,3.16226563 C25.5268281,3.23796875 26.4270313,3.51475 27.0260156,3.74770313 C27.8194375,4.05609375 28.38575,4.42451563 28.98075,5.01951563 C29.57575,5.61425 29.9441719,6.1805625 30.2525625,6.97425 C30.48525,7.57323438 30.7622969,8.4734375 30.838,10.1309375 C30.9198125,11.9236406 30.9370781,12.4612656 30.9370781,17.0005313 C30.9370781,21.5397969 30.9198125,22.0774219 30.838,23.8698594 C30.7622969,25.5273594 30.4855156,26.4275625 30.2525625,27.0265469 C29.9441719,27.8199687 29.57575,28.3862812 28.98075,28.9812812 C28.3860156,29.5762812 27.8197031,29.9447031 27.0260156,30.2530937 C26.4270313,30.4857813 25.5268281,30.7628281 23.8693281,30.8385312 C22.0768906,30.9203437 21.5392656,30.9376094 17,30.9376094 C12.4604688,30.9376094 11.9228438,30.9203437 10.1304063,30.8385312 C8.47290625,30.7628281 7.57270313,30.4860469 6.97371875,30.2530937 C6.18029688,29.9447031 5.61398438,29.5762812 5.01898438,28.9812812 C4.42425,28.3865469 4.0555625,27.8202344 3.74717188,27.0265469 C3.51448438,26.4275625 3.2374375,25.5273594 3.16173438,23.8698594 C3.07992188,22.0771563 3.06265625,21.5395313 3.06265625,17.0005313 C3.06265625,12.4612656 3.07992188,11.9236406 3.16173438,10.1309375 C3.2374375,8.4734375 3.51421875,7.57323438 3.74717188,6.97425 C4.0555625,6.18082813 4.42398438,5.61451563 5.01898438,5.01951563 C5.61371875,4.42451563 6.18003125,4.05609375 6.97371875,3.74770313 C7.57270313,3.51501563 8.47290625,3.23796875 10.1304063,3.16226563 C11.9231094,3.08045313 12.4607344,3.0631875 17,3.0631875 Z M17,0 C12.3831719,0 11.8041094,0.01965625 9.99095313,0.102265625 C8.18151562,0.184875 6.9455625,0.47228125 5.86446875,0.8925 C4.74645313,1.32679688 3.7984375,1.90825 2.85334375,2.85334375 C1.90825,3.7984375 1.32679688,4.74645313 0.8925,5.86446875 C0.47228125,6.94582813 0.184875,8.18151563 0.102265625,9.99095313 C0.01965625,11.8041094 0,12.3831719 0,17 C0,21.6168281 0.01965625,22.1958906 0.102265625,24.0090469 C0.184875,25.8184844 0.47228125,27.0541719 0.8925,28.1355312 C1.32679688,29.2535469 1.90825,30.2015625 2.85334375,31.1466562 C3.7984375,32.09175 4.74645313,32.6729375 5.86446875,33.1075 C6.94582813,33.5277187 8.18151563,33.815125 9.99095313,33.8977344 C11.8041094,33.9803438 12.3831719,34 17,34 C21.6168281,34 22.1958906,33.9803438 24.0090469,33.8977344 C25.8184844,33.815125 27.0541719,33.5277187 28.1355312,33.1075 C29.2535469,32.6729375 30.2015625,32.09175 31.1466562,31.1466562 C32.09175,30.2015625 32.6729375,29.2535469 33.1075,28.1355312 C33.5277187,27.0541719 33.815125,25.8184844 33.8977344,24.0090469 C33.9803438,22.1958906 34,21.6168281 34,17 C34,12.3831719 33.9803438,11.8041094 33.8977344,9.99095313 C33.815125,8.18151562 33.5277187,6.94582813 33.1075,5.86446875 C32.6729375,4.74645313 32.09175,3.7984375 31.1466562,2.85334375 C30.2015625,1.90825 29.2535469,1.3270625 28.1355312,0.8925 C27.0541719,0.47228125 25.8184844,0.184875 24.0090469,0.102265625 C22.1958906,0.01965625 21.6168281,0 17,0 Z" id="Instagram" fill="url(#radialGradient-1)"></path>
        </g>
    </g>
</svg>