<?xml version="1.0" encoding="UTF-8"?>
<svg width="32px" height="26px" viewBox="0 0 32 26" version="1.1" xmlns="http://www.w3.org/2000/svg" xmlns:xlink="http://www.w3.org/1999/xlink">
    <!-- Generator: Sketch 47.1 (45422) - http://www.bohemiancoding.com/sketch -->
    <title>Twitter-logo</title>
    <desc>Created with Sketch.</desc>
    <defs></defs>
    <g id="Page-1" stroke="none" stroke-width="1" fill="none" fill-rule="evenodd">
        <g id="Twitter-logo" fill="#4591C2">
            <path d="M10.0637087,26 C22.1397926,26 28.7434214,15.9980997 28.7434214,7.32519064 C28.7434214,7.04077679 28.7377619,6.75779737 28.7246894,6.47665081 C30.0064366,5.55017409 31.1208712,4.3940306 32,3.07810853 C30.8235505,3.6005566 29.557586,3.95254763 28.2297659,4.11136993 C29.5850064,3.29885001 30.6257087,2.01328985 31.1164074,0.480531104 C29.8477327,1.2323272 28.4431514,1.77916043 26.9476998,2.07369492 C25.7498879,0.79793664 24.043522,0 22.1555753,0 C18.5296972,0 15.5891713,2.93944781 15.5891713,6.56319422 C15.5891713,7.07823113 15.6468818,7.57924258 15.7596724,8.05969399 C10.303319,7.78540078 5.46472306,5.17347915 2.22719528,1.20196528 C1.66268446,2.17187308 1.33802298,3.29885001 1.33802298,4.50113405 C1.33802298,6.77827771 2.49709554,8.78837996 4.25949802,9.96444597 C3.18276656,9.93137459 2.17091956,9.63540568 1.28621105,9.14331952 C1.28469655,9.17065321 1.28469655,9.19830567 1.28469655,9.22715347 C1.28469655,12.4061496 3.54792105,15.0599882 6.5518169,15.6618873 C6.00037863,15.811864 5.42008509,15.8927494 4.82105955,15.8927494 C4.39811484,15.8927494 3.9868876,15.8508325 3.58689955,15.77433 C4.42258601,18.3821077 6.84618834,20.2796876 9.72031526,20.3331596 C7.47263434,22.0935929 4.64218885,23.142633 1.56623457,23.142633 C1.03623845,23.142633 0.513894563,23.1123507 0,23.051866 C2.90569234,24.9135056 6.35540986,26 10.0637087,26" id="Fill-13"></path>
        </g>
    </g>
</svg>